<?xml version="1.0" ?><svg enable-background="new 0 0 512 512" id="Layer_1" version="1.1" viewBox="0 0 512 512" xml:space="preserve" xmlns="http://www.w3.org/2000/svg" xmlns:xlink="http://www.w3.org/1999/xlink"><circle cx="259.8" cy="256" fill="#B0917D" r="183.7"/><linearGradient gradientUnits="userSpaceOnUse" id="SVGID_1_" x1="259.8427" x2="259.8427" y1="432.6668" y2="79.3338"><stop offset="0" style="stop-color:#FFFFFF;stop-opacity:0"/><stop offset="1" style="stop-color:#FFFFFF;stop-opacity:0.8"/></linearGradient><path d="M259.8,432.7c-97.4,0-176.7-79.3-176.7-176.7S162.4,79.3,259.8,79.3S436.5,158.6,436.5,256  S357.3,432.7,259.8,432.7z" fill="url(#SVGID_1_)"/><path d="M313.7,331.1L313.7,331.1c-11.2,0-20.3-9.1-20.3-20.3v-53.3c0-11.2,9.1-20.3,20.3-20.3h0  c11.2,0,20.3,9.1,20.3,20.3v53.3C334,321.9,324.8,331.1,313.7,331.1z" fill="#242225"/><circle cx="313.7" cy="257.7" fill="#FFFFFF" r="12"/><path d="M208.3,331.1L208.3,331.1c-11.2,0-20.3-9.1-20.3-20.3v-53.3c0-11.2,9.1-20.3,20.3-20.3h0  c11.2,0,20.3,9.1,20.3,20.3v53.3C228.7,321.9,219.5,331.1,208.3,331.1z" fill="#242225"/><circle cx="208.3" cy="257.7" fill="#FFFFFF" r="12"/><ellipse cx="259.8" cy="373.3" fill="#98786C" rx="76" ry="36.3"/><ellipse cx="259.8" cy="367.3" fill="#BA7997" rx="76" ry="36.3"/><linearGradient gradientUnits="userSpaceOnUse" id="SVGID_2_" x1="259.8427" x2="259.8427" y1="399.3357" y2="335.3305"><stop offset="0" style="stop-color:#FFFFFF;stop-opacity:0"/><stop offset="1" style="stop-color:#FFFFFF;stop-opacity:0.8"/></linearGradient><ellipse cx="259.8" cy="367.3" fill="url(#SVGID_2_)" rx="67.1" ry="32"/></svg>