<?xml version="1.0" ?><svg enable-background="new 0 0 512 512" id="Layer_1" version="1.1" viewBox="0 0 512 512" xml:space="preserve" xmlns="http://www.w3.org/2000/svg" xmlns:xlink="http://www.w3.org/1999/xlink"><g><defs><circle cx="261.2" cy="256" id="XMLID_1_" r="183.7"/></defs><use fill="#E1C65B" overflow="visible" xlink:href="#XMLID_1_"/><clipPath id="XMLID_3_"><use overflow="visible" xlink:href="#XMLID_1_"/></clipPath><g clip-path="url(#XMLID_3_)"><path d="M256,2C141.6,2,27.1,31.9-74.5,91.7    c-10.7-18.1-21.3-36.3-32-54.4C5-28.3,130.5-61.1,256-61.1C256-40.1,256-19,256,2z" fill="#ECD160" stroke="#1B1613" stroke-miterlimit="10" stroke-width="4.7334"/><path d="M586.5,91.7C484.9,31.9,370.4,2,256,2    c0-21,0-42.1,0-63.1c125.5,0,251,32.8,362.5,98.4C607.8,55.4,597.2,73.5,586.5,91.7z" fill="#ECD160" stroke="#1B1613" stroke-miterlimit="10" stroke-width="4.7334"/><path d="M102.4,85.4c-100.5,27-195.2,81-272.5,162    c-15.2-14.5-30.4-29.1-45.6-43.6C-130.1,114.1-25.3,54.3,85.9,24.4C91.4,44.7,96.9,65,102.4,85.4z" fill="#ECD160" stroke="#1B1613" stroke-miterlimit="10" stroke-width="4.7334"/><path d="M409.6,85.4c-100.5-27-206.7-27-307.2,0    c-5.5-20.3-11-40.6-16.5-60.9c111.2-29.9,228.9-29.9,340.1,0C420.6,44.7,415.1,65,409.6,85.4z" fill="#ECD160" stroke="#1B1613" stroke-miterlimit="10" stroke-width="4.7334"/><path d="M682.1,247.4c-77.3-81-172-135-272.5-162    c5.5-20.3,11-40.6,16.5-60.9c111.2,29.9,216.1,89.7,301.7,179.4C712.5,218.3,697.3,232.9,682.1,247.4z" fill="#ECD160" stroke="#1B1613" stroke-miterlimit="10" stroke-width="4.7334"/><path d="M256,128.2c-92.3,0-184.6,24.1-266.6,72.3    c-10.7-18.1-21.3-36.3-32-54.4c91.8-54,195.2-81,298.5-81C256,86.1,256,107.2,256,128.2z" fill="#ECD160" stroke="#1B1613" stroke-miterlimit="10" stroke-width="4.7334"/><path d="M522.6,200.6    c-82-48.2-174.3-72.3-266.6-72.3c0-21,0-42.1,0-63.1c103.4,0,206.7,27,298.5,81C543.9,164.3,533.2,182.4,522.6,200.6z" fill="#ECD160" stroke="#1B1613" stroke-miterlimit="10" stroke-width="4.7334"/><path d="M135.3,207.2    c-79,21.2-153.4,63.7-214.1,127.3C-94,320-109.3,305.5-124.5,291c69.1-72.3,153.6-120.6,243.3-144.7    C124.3,166.6,129.8,186.9,135.3,207.2z" fill="#ECD160" stroke="#1B1613" stroke-miterlimit="10" stroke-width="4.7334"/><path d="M376.7,207.2c-79-21.2-162.5-21.2-241.4,0    c-5.5-20.3-11-40.6-16.5-60.9c89.7-24.1,184.6-24.1,274.3,0C387.7,166.6,382.2,186.9,376.7,207.2z" fill="#ECD160" stroke="#1B1613" stroke-miterlimit="10" stroke-width="4.7334"/><path d="M590.8,334.6    c-60.8-63.7-135.2-106.1-214.1-127.3c5.5-20.3,11-40.6,16.5-60.9c89.7,24.1,174.3,72.3,243.3,144.7    C621.3,305.5,606,320,590.8,334.6z" fill="#ECD160" stroke="#1B1613" stroke-miterlimit="10" stroke-width="4.7334"/><path d="M53.4,309.4    c-31.2,18.3-60.3,41.2-86.6,68.7c-15.2-14.5-30.4-29.1-45.6-43.6c30.4-31.8,64.2-58.4,100.2-79.6    C32.1,273.1,42.7,291.3,53.4,309.4z" fill="#ECD160" stroke="#1B1613" stroke-miterlimit="10" stroke-width="4.7334"/><path d="M256,254.4c-70.2,0-140.3,18.3-202.6,55    c-10.7-18.1-21.3-36.3-32-54.4c72.1-42.4,153.4-63.7,234.6-63.7C256,212.4,256,233.4,256,254.4z" fill="#ECD160" stroke="#1B1613" stroke-miterlimit="10" stroke-width="4.7334"/><path d="M458.6,309.4    c-62.3-36.7-132.5-55-202.6-55c0-21,0-42.1,0-63.1c81.2,0,162.5,21.2,234.6,63.7C479.9,273.1,469.3,291.3,458.6,309.4z" fill="#ECD160" stroke="#1B1613" stroke-miterlimit="10" stroke-width="4.7334"/><path d="M545.8,377.6    c-26.6-27.8-56.1-50.9-87.7-69.4c10.6-18.2,21.2-36.3,31.8-54.5c36.5,21.4,70.7,48.1,101.5,80.3    C576.2,348.5,561,363.1,545.8,377.6z" fill="#ECD160" stroke="#1B1613" stroke-miterlimit="10" stroke-width="4.7334"/><path d="M168.2,329.1    c-57.4,15.4-111.6,46.3-155.8,92.6c-15.2-14.5-30.4-29.1-45.6-43.6c52.5-55,116.7-91.6,184.9-110    C157.2,288.5,162.7,308.8,168.2,329.1z" fill="#ECD160" stroke="#1B1613" stroke-miterlimit="10" stroke-width="4.7334"/><path d="M343.8,329.1    c-57.4-15.4-118.2-15.4-175.6,0c-5.5-20.3-11-40.6-16.5-60.9c68.2-18.3,140.3-18.3,208.5,0C354.8,288.5,349.3,308.8,343.8,329.1z" fill="#ECD160" stroke="#1B1613" stroke-miterlimit="10" stroke-width="4.7334"/><path d="M499.5,421.7    c-44.2-46.3-98.3-77.2-155.8-92.6c5.5-20.3,11-40.6,16.5-60.9c68.2,18.3,132.5,55,184.9,110C530,392.7,514.8,407.2,499.5,421.7z" fill="#ECD160" stroke="#1B1613" stroke-miterlimit="10" stroke-width="4.7334"/></g></g><path d="M256,315.3c-60.4,0-114.7,13.2-152.8,34.3c32,53.9,90.8,90.1,158,90.1c65.4,0,122.7-34.2,155.3-85.6  C378.2,330.4,320.5,315.3,256,315.3z" fill="#F2EED1"/><linearGradient gradientUnits="userSpaceOnUse" id="SVGID_1_" x1="261.2177" x2="261.2177" y1="432.6668" y2="79.3338"><stop offset="0" style="stop-color:#FFFFFF;stop-opacity:0"/><stop offset="1" style="stop-color:#FFFFFF;stop-opacity:0.8"/></linearGradient><path d="M261.2,432.7c-97.4,0-176.7-79.3-176.7-176.7S163.8,79.3,261.2,79.3S437.9,158.6,437.9,256  S358.6,432.7,261.2,432.7z" fill="url(#SVGID_1_)"/><g><ellipse cx="370.3" cy="261.3" fill="#0A141E" rx="46.3" ry="55.3"/><ellipse cx="370.3" cy="261.3" fill="#FFFFFF" rx="26.4" ry="31.5"/><ellipse cx="149.4" cy="261.3" fill="#0A141E" rx="46.3" ry="55.3"/><ellipse cx="149.4" cy="261.3" fill="#FFFFFF" rx="26.4" ry="31.5"/></g></svg>