<?xml version="1.0" ?><svg enable-background="new 0 0 512 512" id="Layer_1" version="1.1" viewBox="0 0 512 512" xml:space="preserve" xmlns="http://www.w3.org/2000/svg" xmlns:xlink="http://www.w3.org/1999/xlink"><circle cx="256" cy="256" fill="#EC9D43" r="183.7"/><linearGradient gradientUnits="userSpaceOnUse" id="SVGID_1_" x1="255.9999" x2="255.9999" y1="432.6668" y2="79.3338"><stop offset="0" style="stop-color:#FFFFFF;stop-opacity:0"/><stop offset="1" style="stop-color:#FFFFFF;stop-opacity:0.8"/></linearGradient><path d="M256,432.7c-97.4,0-176.7-79.3-176.7-176.7S158.6,79.3,256,79.3S432.7,158.6,432.7,256  S353.4,432.7,256,432.7z" fill="url(#SVGID_1_)"/><g><circle cx="325" cy="307.7" fill="#FFFFFF" r="38"/><circle cx="325" cy="307.7" fill="#26221F" r="31"/><circle cx="311.9" cy="292.2" fill="#FFFFFF" r="15.5"/></g><g><circle cx="187" cy="307.7" fill="#FFFFFF" r="38"/><circle cx="187" cy="307.7" fill="#26221F" r="31"/><circle cx="173.9" cy="292.2" fill="#FFFFFF" r="15.5"/></g><path d="M291.3,355.9c0,36.5-15.8,66-35.3,66s-35.3-29.5-35.3-66" fill="#26221F"/><ellipse cx="256" cy="355.9" fill="#EC9D43" rx="35.3" ry="17.2"/><ellipse cx="256" cy="355.9" fill="#D08D3F" rx="35.3" ry="17.2"/><linearGradient gradientUnits="userSpaceOnUse" id="SVGID_2_" x1="255.9999" x2="255.9999" y1="370.9666" y2="340.8439"><stop offset="0" style="stop-color:#FFFFFF;stop-opacity:0"/><stop offset="1" style="stop-color:#FFFFFF;stop-opacity:0.8"/></linearGradient><ellipse cx="256" cy="355.9" fill="url(#SVGID_2_)" rx="31" ry="15.1"/><ellipse cx="284.5" cy="378.4" fill="#FFFFFF" rx="15.8" ry="7.6"/><ellipse cx="282.6" cy="393.5" fill="#FFFFFF" rx="13.9" ry="7.6"/><ellipse cx="280" cy="408.6" fill="#FFFFFF" rx="11.3" ry="7.6"/><ellipse cx="227.5" cy="378.4" fill="#FFFFFF" rx="15.8" ry="7.6"/><ellipse cx="229.4" cy="393.5" fill="#FFFFFF" rx="13.9" ry="7.6"/><ellipse cx="232" cy="408.6" fill="#FFFFFF" rx="11.3" ry="7.6"/><circle cx="218" cy="230.6" fill="#D08D3F" r="11.2"/><circle cx="294" cy="230.6" fill="#D08D3F" r="11.2"/><circle cx="189.4" cy="185.2" fill="#D08D3F" r="11.2"/><circle cx="325" cy="185.2" fill="#D08D3F" r="11.2"/><circle cx="256" cy="185.2" fill="#D08D3F" r="11.2"/></svg>