<?xml version="1.0" ?><svg enable-background="new 0 0 512 512" id="Layer_1" version="1.1" viewBox="0 0 512 512" xml:space="preserve" xmlns="http://www.w3.org/2000/svg" xmlns:xlink="http://www.w3.org/1999/xlink"><circle cx="256" cy="256" fill="#84C1D3" r="183.7"/><linearGradient gradientUnits="userSpaceOnUse" id="SVGID_1_" x1="255.9998" x2="255.9998" y1="432.6667" y2="79.3338"><stop offset="0" style="stop-color:#FFFFFF;stop-opacity:0"/><stop offset="1" style="stop-color:#FFFFFF;stop-opacity:0.8"/></linearGradient><path d="M256,432.7c-97.4,0-176.7-79.3-176.7-176.7S158.6,79.3,256,79.3S432.7,158.6,432.7,256  S353.4,432.7,256,432.7z" fill="url(#SVGID_1_)"/><path d="M377,341.8c5.4-13.1,8.6-29,8.6-46.2c0-44.9-21.8-81.3-48.7-81.3c-26.9,0-48.7,36.4-48.7,81.3  c0,24.4,6.5,46.3,16.7,61.2L377,341.8z" fill="#141819"/><path d="M358.4,287.4c-4.6,19.8-16.5,34-30.4,34c-10.8,0-20.4-8.6-26.3-21.7c-4.6,3.2-8.8,6.9-12.5,11  c2,18.3,7.8,34.4,15.8,46.2l72.1-15c5.2-12.5,8.3-27.6,8.6-43.8C377.5,292.8,368.3,289.2,358.4,287.4z" fill="#AA587E"/><path d="M135,341.8c-5.4-13.1-8.6-29-8.6-46.2c0-44.9,21.8-81.3,48.7-81.3c26.9,0,48.7,36.4,48.7,81.3  c0,24.4-6.5,46.3-16.7,61.2L135,341.8z" fill="#141819"/><path d="M153.6,287.4c4.6,19.8,16.5,34,30.4,34c10.8,0,20.4-8.6,26.3-21.7c4.6,3.2,8.8,6.9,12.5,11  c-2,18.3-7.8,34.4-15.8,46.2l-72.1-15c-5.2-12.5-8.3-27.6-8.6-43.8C134.5,292.8,143.7,289.2,153.6,287.4z" fill="#AA587E"/><path d="M262.2,396.1c15.9-0.8,49.7-11.2,113.9-34.7c1.2-0.4,0.6-2-0.6-1.7c-11.5,2.5-29.3,6.1-47.5,9.1  c-17.3,2.9-33.9,8.1-48.9,15.7c-5.2,2.6-12.1,4.7-21,4.7c-8.9,0-15.8-2.1-21-4.7c-15-7.6-31.6-12.8-48.9-15.7  c-18.2-3-36-6.6-47.5-9.1c-1.2-0.3-1.8,1.3-0.6,1.7c64.3,23.5,98,33.9,113.9,34.7c1.1,0.1,2.4,0.1,4.1,0.1  C259.7,396.2,261.1,396.2,262.2,396.1z" fill="#569AB1"/><ellipse cx="327.9" cy="269.2" fill="#FFFFFF" rx="25" ry="26"/><ellipse cx="184.1" cy="269.2" fill="#FFFFFF" rx="25" ry="26"/></svg>