<?xml version="1.0" ?><svg enable-background="new 0 0 512 512" id="Layer_1" version="1.1" viewBox="0 0 512 512" xml:space="preserve" xmlns="http://www.w3.org/2000/svg" xmlns:xlink="http://www.w3.org/1999/xlink"><circle cx="256" cy="256" fill="#FCD8D8" r="183.7"/><linearGradient gradientUnits="userSpaceOnUse" id="SVGID_1_" x1="256" x2="256" y1="431.2966" y2="77.9636"><stop offset="0" style="stop-color:#FFFFFF;stop-opacity:0"/><stop offset="1" style="stop-color:#FFFFFF;stop-opacity:0.8"/></linearGradient><path d="M256,431.3c-97.4,0-176.7-79.3-176.7-176.7S158.6,78,256,78s176.7,79.3,176.7,176.7  S353.4,431.3,256,431.3z" fill="url(#SVGID_1_)"/><ellipse cx="360" cy="343.2" fill="#E6BDC5" rx="35.8" ry="16.3"/><ellipse cx="152" cy="343.2" fill="#E6BDC5" rx="35.8" ry="16.3"/><path d="M286,352c0,21.8-13.4,39.5-30,39.5s-30-17.7-30-39.5H286z" fill="#C598AC"/><path d="M269.5,352l2.9,10.8c0.5,1.8,3,1.8,3.5,0l2.9-10.8H269.5z" fill="#FFFFFF"/><g><ellipse cx="313.3" cy="288.8" rx="10" ry="20.3"/><circle cx="313.9" cy="276.2" fill="#FFFFFF" r="3.3"/><ellipse cx="198.8" cy="288.8" rx="10" ry="20.3"/><circle cx="199.4" cy="276.2" fill="#FFFFFF" r="3.3"/></g><path d="M317.9,124.7  c-29.3-29.3-76.9-29.3-106.2,0c-23.5,23.5-23.5,61.5,0,85c18.8,18.8,49.2,18.8,68,0c15-15,15-39.4,0-54.4c-12-12-31.5-12-43.5,0  c-9.6,9.6-9.6,25.2,0,34.8c7.7,7.7,20.2,7.7,27.8,0c6.2-6.2,6.2-16.1,0-22.3" fill="none" stroke="#C598AC" stroke-linecap="round" stroke-miterlimit="10" stroke-width="11"/></svg>