<?xml version="1.0" ?><svg enable-background="new 0 0 512 512" id="Layer_1" version="1.1" viewBox="0 0 512 512" xml:space="preserve" xmlns="http://www.w3.org/2000/svg" xmlns:xlink="http://www.w3.org/1999/xlink"><circle cx="256" cy="256" fill="#55488F" r="183.7"/><linearGradient gradientUnits="userSpaceOnUse" id="SVGID_1_" x1="255.9992" x2="255.9992" y1="432.6668" y2="79.3338"><stop offset="0" style="stop-color:#FFFFFF;stop-opacity:0"/><stop offset="1" style="stop-color:#FFFFFF;stop-opacity:0.8"/></linearGradient><path d="M256,432.7c-97.4,0-176.7-79.3-176.7-176.7S158.6,79.3,256,79.3S432.7,158.6,432.7,256  S353.4,432.7,256,432.7z" fill="url(#SVGID_1_)"/><g><ellipse cx="319.5" cy="286.2" fill="#B73C75" rx="50.5" ry="62.5"/><linearGradient gradientUnits="userSpaceOnUse" id="SVGID_2_" x1="319.4992" x2="319.4992" y1="343.7166" y2="228.7605"><stop offset="0" style="stop-color:#FFFFFF;stop-opacity:0"/><stop offset="1" style="stop-color:#FFFFFF;stop-opacity:0.8"/></linearGradient><ellipse cx="319.5" cy="286.2" fill="url(#SVGID_2_)" rx="46.4" ry="57.5"/><ellipse cx="192.5" cy="286.2" fill="#B73C75" rx="50.5" ry="62.5"/><linearGradient gradientUnits="userSpaceOnUse" id="SVGID_3_" x1="192.4992" x2="192.4992" y1="343.7166" y2="228.7605"><stop offset="0" style="stop-color:#FFFFFF;stop-opacity:0"/><stop offset="1" style="stop-color:#FFFFFF;stop-opacity:0.8"/></linearGradient><ellipse cx="192.5" cy="286.2" fill="url(#SVGID_3_)" rx="46.4" ry="57.5"/></g><path d="M240.6,356.4c0,0-22.7,7.3-18.6,36c0,0,2.1-25,24.6-23.5C246.6,368.9,238.6,365.7,240.6,356.4z" fill="#FFFFFF"/><path d="M272.6,356.4c0,0,22.7,7.3,18.6,36c0,0-2.1-25-24.6-23.5C266.6,368.9,274.6,365.7,272.6,356.4z" fill="#FFFFFF"/><ellipse cx="256" cy="360.2" fill="#B73C75" rx="25.9" ry="11.5"/><linearGradient gradientUnits="userSpaceOnUse" id="SVGID_4_" x1="256" x2="256" y1="369.8862" y2="350.5909"><stop offset="0" style="stop-color:#FFFFFF;stop-opacity:0"/><stop offset="1" style="stop-color:#FFFFFF;stop-opacity:0.8"/></linearGradient><ellipse cx="256" cy="360.2" fill="url(#SVGID_4_)" rx="21.7" ry="9.6"/></svg>