<?xml version="1.0" ?><svg enable-background="new 0 0 512 512" id="Layer_1" version="1.1" viewBox="0 0 512 512" xml:space="preserve" xmlns="http://www.w3.org/2000/svg" xmlns:xlink="http://www.w3.org/1999/xlink"><circle cx="256.7" cy="256" fill="#BDC6E5" r="183.7"/><linearGradient gradientUnits="userSpaceOnUse" id="SVGID_1_" x1="256.6541" x2="256.6541" y1="432.6668" y2="79.3338"><stop offset="0" style="stop-color:#FFFFFF;stop-opacity:0"/><stop offset="1" style="stop-color:#FFFFFF;stop-opacity:0.8"/></linearGradient><path d="M256.7,432.7C159.2,432.7,80,353.4,80,256S159.2,79.3,256.7,79.3S433.3,158.6,433.3,256  S354.1,432.7,256.7,432.7z" fill="url(#SVGID_1_)"/><g><defs><circle cx="-267.8" cy="256" id="XMLID_1_" r="183.7"/></defs><use fill="#E1C65B" overflow="visible" xlink:href="#XMLID_1_"/><clipPath id="XMLID_3_"><use overflow="visible" xlink:href="#XMLID_1_"/></clipPath><g clip-path="url(#XMLID_3_)"><path d="M57.5,91.7C-44.2,31.9-158.6,2-273.1,2    c0-21,0-42.1,0-63.1c125.5,0,251,32.8,362.5,98.4C78.8,55.4,68.1,73.5,57.5,91.7z" fill="#ECD160" stroke="#1B1613" stroke-miterlimit="10" stroke-width="4.7334"/><path d="M199.3,203.3    c-43.3-45.3-91.5-83-142.9-113.1C67,72,77.6,53.8,88.2,35.6c56.4,33,109.3,74.3,156.7,124.1C229.7,174.2,214.5,188.7,199.3,203.3z    " fill="#ECD160" stroke="#1B1613" stroke-miterlimit="10" stroke-width="4.7334"/><path d="M153.1,247.4c-77.3-81-172-135-272.5-162    c5.5-20.3,11-40.6,16.5-60.9C8.2,54.3,113.1,114.1,198.7,203.8C183.5,218.3,168.3,232.9,153.1,247.4z" fill="#ECD160" stroke="#1B1613" stroke-miterlimit="10" stroke-width="4.7334"/><path d="M-6.5,200.6    c-82-48.2-174.3-72.3-266.6-72.3c0-21,0-42.1,0-63.1c103.4,0,206.7,27,298.5,81C14.8,164.3,4.2,182.4-6.5,200.6z" fill="#ECD160" stroke="#1B1613" stroke-miterlimit="10" stroke-width="4.7334"/><path d="M108,290.4c-34.9-36.6-73.8-67-115.3-91.3    c10.6-18.2,21.2-36.3,31.8-54.5c46.5,27.2,90,61.2,129.1,102.2C138.4,261.4,123.2,275.9,108,290.4z" fill="#ECD160" stroke="#1B1613" stroke-miterlimit="10" stroke-width="4.7334"/><path d="M61.8,334.6    C1,270.9-73.4,228.5-152.4,207.2c5.5-20.3,11-40.6,16.5-60.9c89.7,24.1,174.3,72.3,243.3,144.7C92.2,305.5,77,320,61.8,334.6z" fill="#ECD160" stroke="#1B1613" stroke-miterlimit="10" stroke-width="4.7334"/><path d="M16.7,377.6    c-26.6-27.8-56.1-50.9-87.7-69.4c10.6-18.2,21.2-36.3,31.8-54.5C-2.6,275,31.6,301.8,62.3,334C47.1,348.5,31.9,363.1,16.7,377.6z" fill="#ECD160" stroke="#1B1613" stroke-miterlimit="10" stroke-width="4.7334"/><path d="M-29.5,421.7    c-44.2-46.3-98.3-77.2-155.8-92.6c5.5-20.3,11-40.6,16.5-60.9c68.2,18.3,132.5,55,184.9,110C0.9,392.7-14.3,407.2-29.5,421.7z" fill="#ECD160" stroke="#1B1613" stroke-miterlimit="10" stroke-width="4.7334"/></g></g><g><path d="M294.5,291.1h107c0,0,13.2-49.6-17.8-79.9L294.5,291.1z" fill="#FFFFFF"/><path d="M368,225.2l-73.6,65.9h80.6C375.1,291.1,384.8,254.7,368,225.2z" fill="#A02726"/><ellipse cx="334.3" cy="270.8" fill="#FFFFFF" rx="7.4" ry="8.7"/></g><g><path d="M218.8,291.1h-107c0,0-13.2-49.6,17.8-79.9L218.8,291.1z" fill="#FFFFFF"/><path d="M145.3,225.2l73.6,65.9h-80.6C138.2,291.1,128.5,254.7,145.3,225.2z" fill="#A02726"/><ellipse cx="179" cy="270.8" fill="#FFFFFF" rx="7.4" ry="8.7"/></g><path d="M273.1,381.5c-6.5,0.4-16.4-14.8-16.4-14.8s-9.9,15.1-16.4,14.8h-2.8l10.8,27.1h8.4h8.4l10.8-27.1H273.1z" fill="#FFFFFF"/><path d="M236.8,383.4c-13.4,0-24.3-10.9-24.3-24.3c0-2.4,2-4.4,4.4-4.4s4.4,2,4.4,4.4c0,8.5,6.9,15.5,15.5,15.5  s15.5-6.9,15.5-15.5c0-2.4,2-4.4,4.4-4.4s4.4,2,4.4,4.4C261.1,372.6,250.2,383.4,236.8,383.4z" fill="#706FA8"/><path d="M276.5,383.4c-13.4,0-24.3-10.9-24.3-24.3c0-2.4,2-4.4,4.4-4.4s4.4,2,4.4,4.4c0,8.5,6.9,15.5,15.5,15.5  s15.5-6.9,15.5-15.5c0-2.4,2-4.4,4.4-4.4s4.4,2,4.4,4.4C300.8,372.6,289.9,383.4,276.5,383.4z" fill="#706FA8"/><path d="M314,327.5c0,0,0.3-0.3,0.8-0.8c0.6-0.5,1.4-1.3,2.5-2.1c1.1-0.9,2.5-1.9,4.1-3c1.6-1.1,3.5-2.2,5.6-3.4  c2.1-1.2,4.4-2.4,6.9-3.5c2.5-1.1,5.2-2.3,8-3.3c2.8-1.1,5.8-2,8.8-2.9c3-0.9,6.1-1.5,9.3-2.3c3.1-0.6,6.3-1.1,9.4-1.6  c1.6-0.2,3.1-0.3,4.6-0.5c1.5-0.1,3-0.3,4.5-0.4c3-0.1,5.9-0.1,8.6-0.1c2.7,0,5.3,0.3,7.7,0.4c2.4,0.2,4.6,0.4,6.5,0.8  c1.9,0.3,3.6,0.7,5,1c1.4,0.3,2.4,0.6,3.2,0.8c0.7,0.2,1.1,0.3,1.1,0.3s-0.4,0.1-1.1,0.3c-0.7,0.2-1.8,0.5-3.2,0.8  c-1.4,0.3-3,0.7-4.9,1.1c-0.9,0.2-1.9,0.4-3,0.6c-1,0.2-2.1,0.5-3.3,0.7c-1.1,0.2-2.3,0.5-3.6,0.7c-0.6,0.1-1.2,0.2-1.9,0.3  c-0.6,0.1-1.3,0.3-1.9,0.4c-2.6,0.5-5.3,1-8.1,1.6c-1.4,0.3-2.8,0.6-4.3,0.9c-1.4,0.3-2.9,0.6-4.4,0.8c-2.9,0.7-5.9,1.2-8.9,1.8  c-1.5,0.3-3,0.6-4.5,0.9c-0.7,0.2-1.5,0.3-2.2,0.4c-0.7,0.1-1.5,0.3-2.2,0.5c-1.5,0.3-2.9,0.6-4.4,0.9c-1.4,0.3-2.8,0.7-4.2,0.9  c-2.8,0.6-5.5,1.2-8.1,1.8c-2.6,0.6-5,1.1-7.3,1.6C320.1,326.1,314,327.5,314,327.5z" fill="#706FA8"/><path d="M314,351.4c0,0,0.2-0.2,0.6-0.6c0.4-0.3,1-0.9,1.7-1.5c0.8-0.6,1.7-1.3,2.8-2c1.1-0.8,2.4-1.5,3.8-2.4  c1.4-0.8,3-1.6,4.7-2.4c1.7-0.8,3.5-1.6,5.5-2.3c1.9-0.7,4-1.4,6-2c2.1-0.6,4.2-1.1,6.4-1.6c2.2-0.4,4.3-0.8,6.4-1.1  c1.1-0.1,2.1-0.2,3.2-0.3c1.1-0.1,2.1-0.2,3.1-0.3c2.1-0.1,4-0.1,5.9-0.1c1.9,0,3.7,0.2,5.3,0.3c1.6,0.2,3.1,0.3,4.5,0.5  c1.3,0.2,2.5,0.5,3.4,0.7c0.9,0.2,1.7,0.4,2.2,0.5c0.5,0.1,0.8,0.2,0.8,0.2s-0.3,0.1-0.8,0.2c-0.5,0.1-1.2,0.3-2.2,0.6  c-0.9,0.2-2.1,0.5-3.3,0.7c-0.6,0.1-1.3,0.2-2,0.4c-0.7,0.2-1.5,0.3-2.3,0.5c-0.8,0.2-1.6,0.3-2.4,0.5c-0.4,0.1-0.8,0.2-1.3,0.2  c-0.4,0.1-0.9,0.2-1.3,0.3c-1.8,0.4-3.7,0.7-5.6,1.1c-1,0.2-1.9,0.4-2.9,0.6c-1,0.2-2,0.4-3,0.6c-2,0.5-4.1,0.8-6.1,1.2  c-1,0.2-2,0.4-3.1,0.6c-0.5,0.1-1,0.2-1.5,0.3c-0.5,0.1-1,0.2-1.5,0.3c-1,0.2-2,0.4-3,0.6c-1,0.2-1.9,0.5-2.9,0.6  c-1.9,0.4-3.8,0.8-5.5,1.2c-1.8,0.4-3.4,0.8-5,1.1C318.2,350.5,314,351.4,314,351.4z" fill="#706FA8"/><path d="M205.7,327.5c0,0-0.3-0.3-0.8-0.8c-0.6-0.5-1.4-1.3-2.5-2.1c-1.1-0.9-2.5-1.9-4.1-3  c-1.6-1.1-3.5-2.2-5.6-3.4c-2.1-1.2-4.4-2.4-6.9-3.5c-2.5-1.1-5.2-2.3-8-3.3c-2.8-1.1-5.8-2-8.8-2.9c-3-0.9-6.1-1.5-9.3-2.3  c-3.1-0.6-6.3-1.1-9.4-1.6c-1.6-0.2-3.1-0.3-4.6-0.5c-1.5-0.1-3-0.3-4.5-0.4c-3-0.1-5.9-0.1-8.6-0.1c-2.7,0-5.3,0.3-7.7,0.4  c-2.4,0.2-4.6,0.4-6.5,0.8c-1.9,0.3-3.6,0.7-5,1c-1.4,0.3-2.4,0.6-3.2,0.8c-0.7,0.2-1.1,0.3-1.1,0.3s0.4,0.1,1.1,0.3  c0.7,0.2,1.8,0.5,3.2,0.8c1.4,0.3,3,0.7,4.9,1.1c0.9,0.2,1.9,0.4,3,0.6c1,0.2,2.1,0.5,3.3,0.7c1.1,0.2,2.3,0.5,3.6,0.7  c0.6,0.1,1.2,0.2,1.9,0.3c0.6,0.1,1.3,0.3,1.9,0.4c2.6,0.5,5.3,1,8.1,1.6c1.4,0.3,2.8,0.6,4.3,0.9c1.4,0.3,2.9,0.6,4.4,0.8  c2.9,0.7,5.9,1.2,8.9,1.8c1.5,0.3,3,0.6,4.5,0.9c0.7,0.2,1.5,0.3,2.2,0.4c0.7,0.1,1.5,0.3,2.2,0.5c1.5,0.3,2.9,0.6,4.4,0.9  c1.4,0.3,2.8,0.7,4.2,0.9c2.8,0.6,5.5,1.2,8.1,1.8c2.6,0.6,5,1.1,7.3,1.6C199.6,326.1,205.7,327.5,205.7,327.5z" fill="#706FA8"/><path d="M205.7,351.4c0,0-0.2-0.2-0.6-0.6c-0.4-0.3-1-0.9-1.7-1.5c-0.8-0.6-1.7-1.3-2.8-2c-1.1-0.8-2.4-1.5-3.8-2.4  c-1.4-0.8-3-1.6-4.7-2.4c-1.7-0.8-3.5-1.6-5.5-2.3c-1.9-0.7-4-1.4-6-2c-2.1-0.6-4.2-1.1-6.4-1.6c-2.2-0.4-4.3-0.8-6.4-1.1  c-1.1-0.1-2.1-0.2-3.2-0.3c-1.1-0.1-2.1-0.2-3.1-0.3c-2.1-0.1-4-0.1-5.9-0.1c-1.9,0-3.7,0.2-5.3,0.3c-1.6,0.2-3.1,0.3-4.5,0.5  c-1.3,0.2-2.5,0.5-3.4,0.7c-0.9,0.2-1.7,0.4-2.2,0.5c-0.5,0.1-0.8,0.2-0.8,0.2s0.3,0.1,0.8,0.2c0.5,0.1,1.2,0.3,2.2,0.6  c0.9,0.2,2.1,0.5,3.3,0.7c0.6,0.1,1.3,0.2,2,0.4c0.7,0.2,1.5,0.3,2.3,0.5c0.8,0.2,1.6,0.3,2.4,0.5c0.4,0.1,0.8,0.2,1.3,0.2  c0.4,0.1,0.9,0.2,1.3,0.3c1.8,0.4,3.7,0.7,5.6,1.1c1,0.2,1.9,0.4,2.9,0.6c1,0.2,2,0.4,3,0.6c2,0.5,4.1,0.8,6.1,1.2  c1,0.2,2,0.4,3.1,0.6c0.5,0.1,1,0.2,1.5,0.3c0.5,0.1,1,0.2,1.5,0.3c1,0.2,2,0.4,3,0.6c1,0.2,1.9,0.5,2.9,0.6  c1.9,0.4,3.8,0.8,5.5,1.2c1.8,0.4,3.4,0.8,5,1.1C201.5,350.5,205.7,351.4,205.7,351.4z" fill="#706FA8"/><ellipse cx="253.7" cy="173" fill="#706FA8" rx="34.9" ry="44"/><path d="M218.8,157.8l37.8-71l31.9,71C288.6,157.8,256.7,204.8,218.8,157.8z" fill="#BDC6E5"/></svg>