<?xml version="1.0" ?><svg enable-background="new 0 0 512 512" id="Layer_1" version="1.1" viewBox="0 0 512 512" xml:space="preserve" xmlns="http://www.w3.org/2000/svg" xmlns:xlink="http://www.w3.org/1999/xlink"><circle cx="256" cy="256" fill="#583C53" r="183.7"/><path d="M256,72.3C154.6,72.3,72.3,154.6,72.3,256c0,35.9,10.3,69.4,28.1,97.7c43.1,24.5,97,39,155.5,39  s112.4-14.6,155.5-39c17.8-28.3,28.1-61.8,28.1-97.7C439.7,154.6,357.4,72.3,256,72.3z" fill="#7F527D"/><linearGradient gradientUnits="userSpaceOnUse" id="SVGID_1_" x1="255.9999" x2="255.9999" y1="432.6668" y2="79.3338"><stop offset="0" style="stop-color:#FFFFFF;stop-opacity:0"/><stop offset="1" style="stop-color:#FFFFFF;stop-opacity:0.8"/></linearGradient><path d="M256,432.7c-97.4,0-176.7-79.3-176.7-176.7S158.6,79.3,256,79.3S432.7,158.6,432.7,256  S353.4,432.7,256,432.7z" fill="url(#SVGID_1_)"/><path d="M167.3,95.1c-8.8,20.2-13.8,43.6-13.8,68.7c0,75.7,45.9,137,102.5,137c56.6,0,102.5-61.3,102.5-137  c0-25-5-48.5-13.8-68.7c-26.3-14.5-56.5-22.8-88.7-22.8C223.8,72.3,193.6,80.6,167.3,95.1z" fill="#7F527D"/><linearGradient gradientUnits="userSpaceOnUse" id="SVGID_2_" x1="256.0001" x2="256.0001" y1="76.3335" y2="296.8257"><stop offset="0" style="stop-color:#FFFFFF;stop-opacity:0"/><stop offset="1" style="stop-color:#FFFFFF;stop-opacity:0.8"/></linearGradient><path d="M256,296.8c-54.3,0-98.5-59.7-98.5-133c0-23.1,4.5-45.9,12.9-65.8c26.1-14.2,55.7-21.7,85.6-21.7  c29.9,0,59.4,7.5,85.6,21.7c8.5,20,12.9,42.7,12.9,65.8C354.5,237.2,310.3,296.8,256,296.8z" fill="url(#SVGID_2_)"/><g><circle cx="377.7" cy="281.9" fill="#FEEB85" r="34.4"/><path d="M377.7,252.8c0,0,0.3,0.8,0.8,2.3c0.5,1.4,1,3.5,1.5,6c0.5,2.5,0.9,5.4,1.2,8.5c0.2,1.6,0.3,3.2,0.3,4.8   c0.1,1.6,0.1,3.3,0.1,4.9c0,1.7,0,3.3-0.1,4.9c-0.1,1.6-0.2,3.2-0.3,4.8c-0.3,3.1-0.7,6-1.2,8.5c-0.5,2.5-1.1,4.6-1.5,6   c-0.5,1.4-0.8,2.3-0.8,2.3s-0.3-0.8-0.8-2.3c-0.5-1.4-1-3.5-1.5-6c-0.5-2.5-0.9-5.4-1.2-8.5c-0.1-1.6-0.3-3.2-0.3-4.8   c-0.1-1.6-0.1-3.3-0.1-4.9c0-1.7,0-3.3,0.1-4.9c0.1-1.6,0.2-3.2,0.3-4.8c0.3-3.1,0.7-6,1.2-8.5c0.5-2.5,1.1-4.6,1.5-6   C377.3,253.7,377.7,252.8,377.7,252.8z" fill="#231F20"/></g><g><circle cx="134.3" cy="281.9" fill="#FEEB85" r="34.4"/><path d="M134.3,252.8c0,0,0.3,0.8,0.8,2.3c0.5,1.4,1,3.5,1.5,6c0.5,2.5,0.9,5.4,1.2,8.5c0.2,1.6,0.3,3.2,0.3,4.8   c0.1,1.6,0.1,3.3,0.1,4.9c0,1.7,0,3.3-0.1,4.9c-0.1,1.6-0.2,3.2-0.3,4.8c-0.3,3.1-0.7,6-1.2,8.5c-0.5,2.5-1.1,4.6-1.5,6   c-0.5,1.4-0.8,2.3-0.8,2.3s-0.3-0.8-0.8-2.3c-0.5-1.4-1-3.5-1.5-6c-0.5-2.5-0.9-5.4-1.2-8.5c-0.1-1.6-0.3-3.2-0.3-4.8   c-0.1-1.6-0.1-3.3-0.1-4.9c0-1.7,0-3.3,0.1-4.9c0.1-1.6,0.2-3.2,0.3-4.8c0.3-3.1,0.7-6,1.2-8.5c0.5-2.5,1.1-4.6,1.5-6   C134,253.7,134.3,252.8,134.3,252.8z" fill="#231F20"/></g></svg>