<?xml version="1.0" ?><svg enable-background="new 0 0 512 512" id="Layer_1" version="1.1" viewBox="0 0 512 512" xml:space="preserve" xmlns="http://www.w3.org/2000/svg" xmlns:xlink="http://www.w3.org/1999/xlink"><circle cx="256" cy="256" fill="#B385B4" r="183.7"/><linearGradient gradientUnits="userSpaceOnUse" id="SVGID_1_" x1="256" x2="256" y1="431.2966" y2="77.9636"><stop offset="0" style="stop-color:#FFFFFF;stop-opacity:0"/><stop offset="1" style="stop-color:#FFFFFF;stop-opacity:0.8"/></linearGradient><path d="M256,431.3c-97.4,0-176.7-79.3-176.7-176.7S158.6,78,256,78s176.7,79.3,176.7,176.7  S353.4,431.3,256,431.3z" fill="url(#SVGID_1_)"/><g><g><path d="M290.6,291.1h107c0,0,13.2-49.6-17.8-79.9L290.6,291.1z" fill="#FFFFFF"/><path d="M364.2,225.2l-73.6,65.9h80.6C371.3,291.1,380.9,254.7,364.2,225.2z" fill="#A02726"/><ellipse cx="330.5" cy="270.8" fill="#FFFFFF" rx="7.4" ry="8.7"/></g><path d="M290.6,291.1h107c0,0,13.2-49.6-17.8-79.9L290.6,291.1z" fill="#FFFFFF"/><path d="M364.2,225.2l-73.6,65.9h80.6C371.3,291.1,380.9,254.7,364.2,225.2z" fill="#A02726"/><path d="M269.2,381.5c-6.5,0.4-16.4-14.8-16.4-14.8s-9.9,15.1-16.4,14.8h-2.8l10.8,27.1h8.4h8.4l10.8-27.1H269.2z" fill="#FFFFFF"/><path d="M232.9,383.4c-13.4,0-24.3-10.9-24.3-24.3c0-2.4,2-4.4,4.4-4.4s4.4,2,4.4,4.4c0,8.5,6.9,15.5,15.5,15.5   s15.5-6.9,15.5-15.5c0-2.4,2-4.4,4.4-4.4s4.4,2,4.4,4.4C257.2,372.6,246.3,383.4,232.9,383.4z" fill="#6F4462"/><path d="M272.7,383.4c-13.4,0-24.3-10.9-24.3-24.3c0-2.4,2-4.4,4.4-4.4s4.4,2,4.4,4.4c0,8.5,6.9,15.5,15.5,15.5   s15.5-6.9,15.5-15.5c0-2.4,2-4.4,4.4-4.4s4.4,2,4.4,4.4C296.9,372.6,286,383.4,272.7,383.4z" fill="#6F4462"/><path d="M300,291.1h61c0.8-4.5,1.2-9.2,1.2-14c0-16-4.4-30.3-11.4-39.8l-51.7,46.3   C299.3,286.1,299.6,288.6,300,291.1z" fill="#1F0A0F"/><path d="M310.1,327.5c0,0,0.3-0.3,0.8-0.8c0.6-0.5,1.4-1.3,2.5-2.1c1.1-0.9,2.5-1.9,4.1-3c1.6-1.1,3.5-2.2,5.6-3.4   c2.1-1.2,4.4-2.4,6.9-3.5c2.5-1.1,5.2-2.3,8-3.3c2.8-1.1,5.8-2,8.8-2.9c3-0.9,6.1-1.5,9.3-2.3c3.1-0.6,6.3-1.1,9.4-1.6   c1.6-0.2,3.1-0.3,4.6-0.5c1.5-0.1,3-0.3,4.5-0.4c3-0.1,5.9-0.1,8.6-0.1c2.7,0,5.3,0.3,7.7,0.4c2.4,0.2,4.6,0.4,6.5,0.8   c1.9,0.3,3.6,0.7,5,1c1.4,0.3,2.4,0.6,3.2,0.8c0.7,0.2,1.1,0.3,1.1,0.3s-0.4,0.1-1.1,0.3c-0.7,0.2-1.8,0.5-3.2,0.8   c-1.4,0.3-3,0.7-4.9,1.1c-0.9,0.2-1.9,0.4-3,0.6c-1,0.2-2.1,0.5-3.3,0.7c-1.1,0.2-2.3,0.5-3.6,0.7c-0.6,0.1-1.2,0.2-1.9,0.3   c-0.6,0.1-1.3,0.3-1.9,0.4c-2.6,0.5-5.3,1-8.1,1.6c-1.4,0.3-2.8,0.6-4.3,0.9c-1.4,0.3-2.9,0.6-4.4,0.8c-2.9,0.7-5.9,1.2-8.9,1.8   c-1.5,0.3-3,0.6-4.5,0.9c-0.7,0.2-1.5,0.3-2.2,0.4c-0.7,0.1-1.5,0.3-2.2,0.5c-1.5,0.3-2.9,0.6-4.4,0.9c-1.4,0.3-2.8,0.7-4.2,0.9   c-2.8,0.6-5.5,1.2-8.1,1.8c-2.6,0.6-5,1.1-7.3,1.6C316.3,326.1,310.1,327.5,310.1,327.5z" fill="#6F4462"/><path d="M310.1,351.4c0,0,0.2-0.2,0.6-0.6c0.4-0.3,1-0.9,1.7-1.5c0.8-0.6,1.7-1.3,2.8-2c1.1-0.8,2.4-1.5,3.8-2.4   c1.4-0.8,3-1.6,4.7-2.4c1.7-0.8,3.5-1.6,5.5-2.3c1.9-0.7,4-1.4,6-2c2.1-0.6,4.2-1.1,6.4-1.6c2.2-0.4,4.3-0.8,6.4-1.1   c1.1-0.1,2.1-0.2,3.2-0.3c1.1-0.1,2.1-0.2,3.1-0.3c2.1-0.1,4-0.1,5.9-0.1c1.9,0,3.7,0.2,5.3,0.3c1.6,0.2,3.1,0.3,4.5,0.5   c1.3,0.2,2.5,0.5,3.4,0.7c0.9,0.2,1.7,0.4,2.2,0.5c0.5,0.1,0.8,0.2,0.8,0.2s-0.3,0.1-0.8,0.2c-0.5,0.1-1.2,0.3-2.2,0.6   c-0.9,0.2-2.1,0.5-3.3,0.7c-0.6,0.1-1.3,0.2-2,0.4c-0.7,0.2-1.5,0.3-2.3,0.5c-0.8,0.2-1.6,0.3-2.4,0.5c-0.4,0.1-0.8,0.2-1.3,0.2   c-0.4,0.1-0.9,0.2-1.3,0.3c-1.8,0.4-3.7,0.7-5.6,1.1c-1,0.2-1.9,0.4-2.9,0.6c-1,0.2-2,0.4-3,0.6c-2,0.5-4.1,0.8-6.1,1.2   c-1,0.2-2,0.4-3.1,0.6c-0.5,0.1-1,0.2-1.5,0.3c-0.5,0.1-1,0.2-1.5,0.3c-1,0.2-2,0.4-3,0.6c-1,0.2-1.9,0.5-2.9,0.6   c-1.9,0.4-3.8,0.8-5.5,1.2c-1.8,0.4-3.4,0.8-5,1.1C314.3,350.5,310.1,351.4,310.1,351.4z" fill="#6F4462"/><path d="M201.9,327.5c0,0-0.3-0.3-0.8-0.8c-0.6-0.5-1.4-1.3-2.5-2.1c-1.1-0.9-2.5-1.9-4.1-3   c-1.6-1.1-3.5-2.2-5.6-3.4c-2.1-1.2-4.4-2.4-6.9-3.5c-2.5-1.1-5.2-2.3-8-3.3c-2.8-1.1-5.8-2-8.8-2.9c-3-0.9-6.1-1.5-9.3-2.3   c-3.1-0.6-6.3-1.1-9.4-1.6c-1.6-0.2-3.1-0.3-4.6-0.5c-1.5-0.1-3-0.3-4.5-0.4c-3-0.1-5.9-0.1-8.6-0.1c-2.7,0-5.3,0.3-7.7,0.4   c-2.4,0.2-4.6,0.4-6.5,0.8c-1.9,0.3-3.6,0.7-5,1c-1.4,0.3-2.4,0.6-3.2,0.8c-0.7,0.2-1.1,0.3-1.1,0.3s0.4,0.1,1.1,0.3   c0.7,0.2,1.8,0.5,3.2,0.8c1.4,0.3,3,0.7,4.9,1.1c0.9,0.2,1.9,0.4,3,0.6c1,0.2,2.1,0.5,3.3,0.7c1.1,0.2,2.3,0.5,3.6,0.7   c0.6,0.1,1.2,0.2,1.9,0.3c0.6,0.1,1.3,0.3,1.9,0.4c2.6,0.5,5.3,1,8.1,1.6c1.4,0.3,2.8,0.6,4.3,0.9c1.4,0.3,2.9,0.6,4.4,0.8   c2.9,0.7,5.9,1.2,8.9,1.8c1.5,0.3,3,0.6,4.5,0.9c0.7,0.2,1.5,0.3,2.2,0.4c0.7,0.1,1.5,0.3,2.2,0.5c1.5,0.3,2.9,0.6,4.4,0.9   c1.4,0.3,2.8,0.7,4.2,0.9c2.8,0.6,5.5,1.2,8.1,1.8c2.6,0.6,5,1.1,7.3,1.6C195.8,326.1,201.9,327.5,201.9,327.5z" fill="#6F4462"/><path d="M201.9,351.4c0,0-0.2-0.2-0.6-0.6c-0.4-0.3-1-0.9-1.7-1.5c-0.8-0.6-1.7-1.3-2.8-2c-1.1-0.8-2.4-1.5-3.8-2.4   c-1.4-0.8-3-1.6-4.7-2.4c-1.7-0.8-3.5-1.6-5.5-2.3c-1.9-0.7-4-1.4-6-2c-2.1-0.6-4.2-1.1-6.4-1.6c-2.2-0.4-4.3-0.8-6.4-1.1   c-1.1-0.1-2.1-0.2-3.2-0.3c-1.1-0.1-2.1-0.2-3.1-0.3c-2.1-0.1-4-0.1-5.9-0.1c-1.9,0-3.7,0.2-5.3,0.3c-1.6,0.2-3.1,0.3-4.5,0.5   c-1.3,0.2-2.5,0.5-3.4,0.7c-0.9,0.2-1.7,0.4-2.2,0.5c-0.5,0.1-0.8,0.2-0.8,0.2s0.3,0.1,0.8,0.2c0.5,0.1,1.2,0.3,2.2,0.6   c0.9,0.2,2.1,0.5,3.3,0.7c0.6,0.1,1.3,0.2,2,0.4c0.7,0.2,1.5,0.3,2.3,0.5c0.8,0.2,1.6,0.3,2.4,0.5c0.4,0.1,0.8,0.2,1.3,0.2   c0.4,0.1,0.9,0.2,1.3,0.3c1.8,0.4,3.7,0.7,5.6,1.1c1,0.2,1.9,0.4,2.9,0.6c1,0.2,2,0.4,3,0.6c2,0.5,4.1,0.8,6.1,1.2   c1,0.2,2,0.4,3.1,0.6c0.5,0.1,1,0.2,1.5,0.3c0.5,0.1,1,0.2,1.5,0.3c1,0.2,2,0.4,3,0.6c1,0.2,1.9,0.5,2.9,0.6   c1.9,0.4,3.8,0.8,5.5,1.2c1.8,0.4,3.4,0.8,5,1.1C197.7,350.5,201.9,351.4,201.9,351.4z" fill="#6F4462"/><ellipse cx="249.9" cy="173" fill="#6F4462" rx="34.9" ry="44"/><path d="M215,157.8l37.8-71l31.9,71C284.7,157.8,252.8,204.8,215,157.8z" fill="#B385B4"/><ellipse cx="330.5" cy="270.8" fill="#FFFFFF" rx="7.4" ry="8.7"/><path d="M215,291.1H108c0,0-13.2-49.6,17.8-79.9L215,291.1z" fill="#FFFFFF"/><path d="M141.4,225.2l73.6,65.9h-80.6C134.3,291.1,124.7,254.7,141.4,225.2z" fill="#A02726"/><path d="M205.7,291.1h-61c-0.8-4.5-1.2-9.2-1.2-14c0-16,4.4-30.3,11.4-39.8l51.7,46.3   C206.5,286.1,206.2,288.6,205.7,291.1z" fill="#1F0A0F"/><ellipse cx="175.1" cy="270.8" fill="#FFFFFF" rx="7.4" ry="8.7"/></g></svg>