<?xml version="1.0" ?><svg enable-background="new 0 0 512 512" id="Layer_1" version="1.1" viewBox="0 0 512 512" xml:space="preserve" xmlns="http://www.w3.org/2000/svg" xmlns:xlink="http://www.w3.org/1999/xlink"><circle cx="256" cy="256" fill="#C7B6A5" r="183.7"/><linearGradient gradientUnits="userSpaceOnUse" id="SVGID_1_" x1="255.9999" x2="255.9999" y1="432.6668" y2="79.3338"><stop offset="0" style="stop-color:#FFFFFF;stop-opacity:0"/><stop offset="1" style="stop-color:#FFFFFF;stop-opacity:0.8"/></linearGradient><path d="M256,432.7c-97.4,0-176.7-79.3-176.7-176.7S158.6,79.3,256,79.3S432.7,158.6,432.7,256  S353.4,432.7,256,432.7z" fill="url(#SVGID_1_)"/><ellipse cx="258" cy="304.8" fill="#C096A2" rx="64.5" ry="40.9"/><linearGradient gradientUnits="userSpaceOnUse" id="SVGID_2_" x1="257.9593" x2="257.9593" y1="342.8276" y2="266.8038"><stop offset="0" style="stop-color:#FFFFFF;stop-opacity:0"/><stop offset="1" style="stop-color:#FFFFFF;stop-opacity:0.8"/></linearGradient><ellipse cx="258" cy="304.8" fill="url(#SVGID_2_)" rx="59.9" ry="38"/><ellipse cx="232.6" cy="304.8" fill="#191718" rx="6" ry="17.3"/><ellipse cx="283.3" cy="304.8" fill="#191718" rx="6" ry="17.3"/><polygon fill="#FFFFFF" points="282.5,261.9 343.2,242.1 343.2,202.7 "/><ellipse cx="321.7" cy="235.2" fill="#191718" rx="3.8" ry="7.5"/><polygon fill="#FFFFFF" points="233.4,261.9 172.7,242.1 172.7,202.7 "/><ellipse cx="194.2" cy="235.2" fill="#191718" rx="3.8" ry="7.5"/><g><polyline fill="none" points="364.3,147.4 347.5,147.4 347.5,130.6  " stroke="#191718" stroke-miterlimit="10" stroke-width="4"/><polyline fill="none" points="347.5,192.3 347.5,175.5 364.3,175.5  " stroke="#191718" stroke-miterlimit="10" stroke-width="4"/><polyline fill="none" points="302.5,175.5 319.3,175.5 319.3,192.3  " stroke="#191718" stroke-miterlimit="10" stroke-width="4"/><polyline fill="none" points="319.3,130.6 319.3,147.4 302.5,147.4  " stroke="#191718" stroke-miterlimit="10" stroke-width="4"/></g></svg>