<?xml version="1.0" ?><svg enable-background="new 0 0 512 512" id="Layer_1" version="1.1" viewBox="0 0 512 512" xml:space="preserve" xmlns="http://www.w3.org/2000/svg" xmlns:xlink="http://www.w3.org/1999/xlink"><circle cx="252.8" cy="256" fill="#EFCB73" r="183.7"/><linearGradient gradientUnits="userSpaceOnUse" id="SVGID_1_" x1="252.8058" x2="252.8058" y1="432.6668" y2="79.3338"><stop offset="0" style="stop-color:#FFFFFF;stop-opacity:0"/><stop offset="1" style="stop-color:#FFFFFF;stop-opacity:0.8"/></linearGradient><path d="M252.8,432.7c-97.4,0-176.7-79.3-176.7-176.7S155.4,79.3,252.8,79.3S429.5,158.6,429.5,256  S350.2,432.7,252.8,432.7z" fill="url(#SVGID_1_)"/><g><ellipse cx="362.3" cy="239.9" fill="#FFFFFF" rx="41" ry="27"/><circle cx="362.3" cy="241.9" fill="#060405" r="4.1"/><ellipse cx="143.3" cy="239.9" fill="#FFFFFF" rx="41" ry="27"/><circle cx="143.3" cy="241.9" fill="#060405" r="4.1"/></g><path d="M323.7,270.5c-13.7-1-27.1-4.7-39-11.6c-8.1-4.7-19.4-7.6-32-7.6c-12.7,0-24.1,3-32.2,7.7  c-11.9,7-25.3,10.9-39,11.9c-44.3,3.5-74.2,10.1-74.2,17.6c0,11.2,66.5,20.3,148.5,20.3c82,0,148.5-9.1,148.5-20.3  C404.5,280.7,371.7,273.8,323.7,270.5z" fill="#FBF5DF"/><g><path d="M256.8,198L256.8,198c-8.6,0-15.7-7-15.7-15.7v-71.9c0-8.6,7-15.7,15.7-15.7h0c8.6,0,15.7,7,15.7,15.7v71.9   C272.5,190.9,265.4,198,256.8,198z" fill="#201E1F"/><path d="M245.7,193.4L245.7,193.4c-6.1-6.1-6.1-16.1,0-22.2l42-42c6.1-6.1,16.1-6.1,22.2,0l0,0   c6.1,6.1,6.1,16.1,0,22.2l-42,42C261.8,199.5,251.8,199.5,245.7,193.4z" fill="#201E1F"/><path d="M266.3,193.4L266.3,193.4c-6.1,6.1-16.1,6.1-22.2,0l-42-42c-6.1-6.1-6.1-16.1,0-22.2l0,0   c6.1-6.1,16.1-6.1,22.2,0l42,42C272.4,177.3,272.4,187.3,266.3,193.4z" fill="#201E1F"/></g></svg>