<?xml version="1.0" ?><svg enable-background="new 0 0 512 512" id="Layer_1" version="1.1" viewBox="0 0 512 512" xml:space="preserve" xmlns="http://www.w3.org/2000/svg" xmlns:xlink="http://www.w3.org/1999/xlink"><circle cx="261.5" cy="256" fill="#F8D7E0" r="183.7"/><linearGradient gradientUnits="userSpaceOnUse" id="SVGID_1_" x1="261.5117" x2="261.5117" y1="432.6668" y2="79.3338"><stop offset="0" style="stop-color:#FFFFFF;stop-opacity:0"/><stop offset="1" style="stop-color:#FFFFFF;stop-opacity:0.8"/></linearGradient><path d="M261.5,432.7c-97.4,0-176.7-79.3-176.7-176.7S164.1,79.3,261.5,79.3S438.2,158.6,438.2,256  S358.9,432.7,261.5,432.7z" fill="url(#SVGID_1_)"/><g><ellipse cx="354" cy="314.5" fill="#FFFFFF" rx="44" ry="58"/><ellipse cx="354" cy="314.5" fill="#006486" rx="34" ry="44.8"/><circle cx="354" cy="286.7" fill="#FFFFFF" r="12.9"/></g><g><ellipse cx="183" cy="314.5" fill="#FFFFFF" rx="44" ry="58"/><ellipse cx="183" cy="314.5" fill="#006486" rx="34" ry="44.8"/><circle cx="183" cy="286.7" fill="#FFFFFF" r="12.9"/></g><path d="M302.1,384.6  c0,8.8-14.5,16-32.3,16c-17.9,0-32.3-7.2-32.3-16" fill="none" stroke="#141824" stroke-linecap="round" stroke-miterlimit="10" stroke-width="7"/><path d="M268.3,85.7c0,0-71,4-73,80s96,80,101,46s-31-26.6-34.8-22c3.5-13,31-10.5,34.8-3c0,0,35.5-25,31.1-53.5  C324.3,113.2,313.3,89.7,268.3,85.7z" fill="#E3B4BA"/><linearGradient gradientUnits="userSpaceOnUse" id="SVGID_2_" x1="261.5113" x2="261.5113" y1="228.1721" y2="89.7513"><stop offset="0" style="stop-color:#FFFFFF;stop-opacity:0"/><stop offset="1" style="stop-color:#FFFFFF;stop-opacity:0.8"/></linearGradient><path d="M260.6,228.2c-17.4,0-34.4-6.9-45.7-18.4c-10.9-11.2-16.1-25.9-15.7-43.9c0.8-29.9,12.6-51.8,35-65  c15.8-9.3,31.7-10.9,34-11.1c44,4,52.5,27.1,55.2,44.1c3.3,21.2-18.7,41.1-26.7,47.5c-4.3-3.3-11.4-4.8-17.7-4.8  c-11.4,0-19.4,4.5-21.4,12.2l7,3.6c0,0-0.1,0.1-0.1,0.1c0.9-0.8,5.6-2.7,11.9-2.7c4,0,9.6,0.8,13,4.8c3.1,3.5,4.1,9.2,3,16.7  C290.8,221.3,278.1,228.2,260.6,228.2z" fill="url(#SVGID_2_)"/></svg>