<?xml version="1.0" ?><svg enable-background="new 0 0 512 512" id="Layer_1" version="1.1" viewBox="0 0 512 512" xml:space="preserve" xmlns="http://www.w3.org/2000/svg" xmlns:xlink="http://www.w3.org/1999/xlink"><circle cx="266.8" cy="256" fill="#C1985A" r="183.7"/><linearGradient gradientUnits="userSpaceOnUse" id="SVGID_1_" x1="266.7899" x2="266.7899" y1="432.6668" y2="79.3338"><stop offset="0" style="stop-color:#FFFFFF;stop-opacity:0"/><stop offset="1" style="stop-color:#FFFFFF;stop-opacity:0.8"/></linearGradient><path d="M266.8,432.7c-97.4,0-176.7-79.3-176.7-176.7S169.4,79.3,266.8,79.3S443.5,158.6,443.5,256  S364.2,432.7,266.8,432.7z" fill="url(#SVGID_1_)"/><ellipse cx="266.8" cy="358.4" fill="#937042" rx="100.5" ry="48"/><ellipse cx="266.8" cy="350.4" fill="#BA7997" rx="100.5" ry="48"/><linearGradient gradientUnits="userSpaceOnUse" id="SVGID_2_" x1="266.7897" x2="266.7897" y1="392.7579" y2="308.1006"><stop offset="0" style="stop-color:#FFFFFF;stop-opacity:0"/><stop offset="1" style="stop-color:#FFFFFF;stop-opacity:0.8"/></linearGradient><ellipse cx="266.8" cy="350.4" fill="url(#SVGID_2_)" rx="88.7" ry="42.3"/><g><circle cx="351.3" cy="279.9" fill="#0F0B0A" r="20"/><circle cx="351.3" cy="275.9" fill="#FFFFFF" r="12.1"/></g><g><circle cx="182.4" cy="279.9" fill="#0F0B0A" r="20"/><circle cx="182.4" cy="275.9" fill="#FFFFFF" r="12.1"/></g><path d="M266.8,90.8L266.8,90.8L266.8,90.8l-46.9,94c0,0,17.7,11,46.9,11s46.9-11,46.9-11L266.8,90.8z" fill="#FFFFFF"/></svg>